<mxfile host="app.diagrams.net" modified="2021-11-21T10:15:39.426Z" agent="5.0 (Macintosh; Intel Mac OS X 10_15_7) AppleWebKit/605.1.15 (KHTML, like Gecko) Version/14.1.1 Safari/605.1.15" etag="g_REBaZhLyMvt_Sm5KQ5" version="15.8.3" type="github">
  <diagram id="o1lI7uaFn6-g1FVOMqIx" name="Page-1">
    <mxGraphModel dx="1773" dy="558" grid="1" gridSize="10" guides="1" tooltips="1" connect="1" arrows="1" fold="1" page="1" pageScale="1" pageWidth="827" pageHeight="1169" math="0" shadow="0">
      <root>
        <mxCell id="0" />
        <mxCell id="1" parent="0" />
        <mxCell id="LmUMngHWBcQyNiguUtHR-1" value="2022届快手薪资&amp;nbsp;" style="rounded=0;whiteSpace=wrap;html=1;fontSize=16;fillColor=#cce5ff;strokeColor=#36393d;" vertex="1" parent="1">
          <mxGeometry x="-21.67" y="160" width="511.67" height="54" as="geometry" />
        </mxCell>
        <mxCell id="LmUMngHWBcQyNiguUtHR-2" value="offer 等级" style="rounded=0;whiteSpace=wrap;html=1;fontSize=16;fillColor=#ffff88;strokeColor=#36393d;" vertex="1" parent="1">
          <mxGeometry x="80" y="214" width="101.66666666666667" height="54" as="geometry" />
        </mxCell>
        <mxCell id="LmUMngHWBcQyNiguUtHR-3" value="月薪" style="rounded=0;whiteSpace=wrap;html=1;fontSize=16;fillColor=#ffff88;strokeColor=#36393d;" vertex="1" parent="1">
          <mxGeometry x="181.66666666666669" y="214" width="101.66666666666667" height="54" as="geometry" />
        </mxCell>
        <mxCell id="LmUMngHWBcQyNiguUtHR-4" value="房补" style="rounded=0;whiteSpace=wrap;html=1;fontSize=16;fillColor=#ffff88;strokeColor=#36393d;" vertex="1" parent="1">
          <mxGeometry x="283.33" y="214" width="101.66666666666667" height="54" as="geometry" />
        </mxCell>
        <mxCell id="LmUMngHWBcQyNiguUtHR-12" value="岗位" style="rounded=0;whiteSpace=wrap;html=1;fontSize=16;fillColor=#ffff88;strokeColor=#36393d;" vertex="1" parent="1">
          <mxGeometry x="-21.67" y="214" width="101.66666666666667" height="54" as="geometry" />
        </mxCell>
        <mxCell id="LmUMngHWBcQyNiguUtHR-20" value="年总包" style="rounded=0;whiteSpace=wrap;html=1;fontSize=16;fillColor=#ffff88;strokeColor=#36393d;" vertex="1" parent="1">
          <mxGeometry x="385" y="214" width="105" height="54" as="geometry" />
        </mxCell>
        <mxCell id="LmUMngHWBcQyNiguUtHR-46" value="" style="group" vertex="1" connectable="0" parent="1">
          <mxGeometry x="-21.67" y="268" width="721.67" height="372" as="geometry" />
        </mxCell>
        <mxCell id="LmUMngHWBcQyNiguUtHR-5" value="白菜" style="rounded=0;whiteSpace=wrap;html=1;fontSize=16;" vertex="1" parent="LmUMngHWBcQyNiguUtHR-46">
          <mxGeometry x="101.67000000000002" width="101.66666666666669" height="62" as="geometry" />
        </mxCell>
        <mxCell id="LmUMngHWBcQyNiguUtHR-6" value="22k*16" style="rounded=0;whiteSpace=wrap;html=1;fontSize=16;" vertex="1" parent="LmUMngHWBcQyNiguUtHR-46">
          <mxGeometry x="203.33666666666673" width="101.66666666666669" height="62" as="geometry" />
        </mxCell>
        <mxCell id="LmUMngHWBcQyNiguUtHR-7" value="2k*12" style="rounded=0;whiteSpace=wrap;html=1;fontSize=16;" vertex="1" parent="LmUMngHWBcQyNiguUtHR-46">
          <mxGeometry x="305.00000000000006" width="101.66666666666669" height="186" as="geometry" />
        </mxCell>
        <mxCell id="LmUMngHWBcQyNiguUtHR-8" value="sp" style="rounded=0;whiteSpace=wrap;html=1;fontSize=16;" vertex="1" parent="LmUMngHWBcQyNiguUtHR-46">
          <mxGeometry x="101.67000000000002" y="62" width="101.66666666666669" height="62" as="geometry" />
        </mxCell>
        <mxCell id="LmUMngHWBcQyNiguUtHR-9" value="28k*16" style="rounded=0;whiteSpace=wrap;html=1;fontSize=16;" vertex="1" parent="LmUMngHWBcQyNiguUtHR-46">
          <mxGeometry x="203.33666666666673" y="62" width="101.66666666666669" height="62" as="geometry" />
        </mxCell>
        <mxCell id="LmUMngHWBcQyNiguUtHR-10" value="ssp" style="rounded=0;whiteSpace=wrap;html=1;fontSize=16;" vertex="1" parent="LmUMngHWBcQyNiguUtHR-46">
          <mxGeometry x="101.67000000000002" y="124" width="101.66666666666669" height="62" as="geometry" />
        </mxCell>
        <mxCell id="LmUMngHWBcQyNiguUtHR-11" value="32-33k*16" style="rounded=0;whiteSpace=wrap;html=1;fontSize=16;" vertex="1" parent="LmUMngHWBcQyNiguUtHR-46">
          <mxGeometry x="203.33666666666673" y="124" width="101.66666666666669" height="62" as="geometry" />
        </mxCell>
        <mxCell id="LmUMngHWBcQyNiguUtHR-13" value="开发岗" style="rounded=0;whiteSpace=wrap;html=1;fontSize=16;" vertex="1" parent="LmUMngHWBcQyNiguUtHR-46">
          <mxGeometry width="101.67000000000002" height="186" as="geometry" />
        </mxCell>
        <mxCell id="LmUMngHWBcQyNiguUtHR-14" value="白菜" style="rounded=0;whiteSpace=wrap;html=1;fontSize=16;" vertex="1" parent="LmUMngHWBcQyNiguUtHR-46">
          <mxGeometry x="101.67000000000002" y="186" width="101.66666666666669" height="62" as="geometry" />
        </mxCell>
        <mxCell id="LmUMngHWBcQyNiguUtHR-15" value="sp" style="rounded=0;whiteSpace=wrap;html=1;fontSize=16;" vertex="1" parent="LmUMngHWBcQyNiguUtHR-46">
          <mxGeometry x="101.67000000000002" y="248" width="101.66666666666669" height="62" as="geometry" />
        </mxCell>
        <mxCell id="LmUMngHWBcQyNiguUtHR-16" value="ssp" style="rounded=0;whiteSpace=wrap;html=1;fontSize=16;" vertex="1" parent="LmUMngHWBcQyNiguUtHR-46">
          <mxGeometry x="101.67000000000002" y="310" width="101.66666666666669" height="62" as="geometry" />
        </mxCell>
        <mxCell id="LmUMngHWBcQyNiguUtHR-17" value="25-28k*16" style="rounded=0;whiteSpace=wrap;html=1;fontSize=16;" vertex="1" parent="LmUMngHWBcQyNiguUtHR-46">
          <mxGeometry x="203.33666666666673" y="186" width="101.66666666666669" height="62" as="geometry" />
        </mxCell>
        <mxCell id="LmUMngHWBcQyNiguUtHR-18" value="32k*16" style="rounded=0;whiteSpace=wrap;html=1;fontSize=16;" vertex="1" parent="LmUMngHWBcQyNiguUtHR-46">
          <mxGeometry x="203.33666666666673" y="248" width="101.66666666666669" height="62" as="geometry" />
        </mxCell>
        <mxCell id="LmUMngHWBcQyNiguUtHR-19" value="35k*16" style="rounded=0;whiteSpace=wrap;html=1;fontSize=16;" vertex="1" parent="LmUMngHWBcQyNiguUtHR-46">
          <mxGeometry x="203.33666666666673" y="310" width="101.66666666666669" height="62" as="geometry" />
        </mxCell>
        <mxCell id="LmUMngHWBcQyNiguUtHR-21" value="2k*12" style="rounded=0;whiteSpace=wrap;html=1;fontSize=16;" vertex="1" parent="LmUMngHWBcQyNiguUtHR-46">
          <mxGeometry x="305.00000000000006" y="186" width="101.66666666666669" height="186" as="geometry" />
        </mxCell>
        <mxCell id="LmUMngHWBcQyNiguUtHR-22" value="算法岗" style="rounded=0;whiteSpace=wrap;html=1;fontSize=16;" vertex="1" parent="LmUMngHWBcQyNiguUtHR-46">
          <mxGeometry y="186" width="101.67000000000002" height="186" as="geometry" />
        </mxCell>
        <mxCell id="LmUMngHWBcQyNiguUtHR-23" value="约36w" style="rounded=0;whiteSpace=wrap;html=1;fontSize=16;" vertex="1" parent="LmUMngHWBcQyNiguUtHR-46">
          <mxGeometry x="406.6700000000001" width="105.00000000000001" height="62" as="geometry" />
        </mxCell>
        <mxCell id="LmUMngHWBcQyNiguUtHR-24" value="约45w" style="rounded=0;whiteSpace=wrap;html=1;fontSize=16;" vertex="1" parent="LmUMngHWBcQyNiguUtHR-46">
          <mxGeometry x="406.6700000000001" y="62" width="105.00000000000001" height="62" as="geometry" />
        </mxCell>
        <mxCell id="LmUMngHWBcQyNiguUtHR-25" value="约54w" style="rounded=0;whiteSpace=wrap;html=1;fontSize=16;" vertex="1" parent="LmUMngHWBcQyNiguUtHR-46">
          <mxGeometry x="406.6700000000001" y="124" width="105.00000000000001" height="62" as="geometry" />
        </mxCell>
        <mxCell id="LmUMngHWBcQyNiguUtHR-26" value="约43w" style="rounded=0;whiteSpace=wrap;html=1;fontSize=16;" vertex="1" parent="LmUMngHWBcQyNiguUtHR-46">
          <mxGeometry x="406.6700000000001" y="186" width="105.00000000000001" height="62" as="geometry" />
        </mxCell>
        <mxCell id="LmUMngHWBcQyNiguUtHR-27" value="约54w" style="rounded=0;whiteSpace=wrap;html=1;fontSize=16;" vertex="1" parent="LmUMngHWBcQyNiguUtHR-46">
          <mxGeometry x="406.6700000000001" y="248" width="105.00000000000001" height="62" as="geometry" />
        </mxCell>
        <mxCell id="LmUMngHWBcQyNiguUtHR-28" value="约59w" style="rounded=0;whiteSpace=wrap;html=1;fontSize=16;" vertex="1" parent="LmUMngHWBcQyNiguUtHR-46">
          <mxGeometry x="406.6700000000001" y="310" width="105.00000000000001" height="62" as="geometry" />
        </mxCell>
      </root>
    </mxGraphModel>
  </diagram>
</mxfile>
